<?xml version="1.0" encoding="iso-8859-1"?>
<!-- Generator: Adobe Illustrator 19.0.0, SVG Export Plug-In . SVG Version: 6.00 Build 0)  -->
<!-- License: CC0. Made by SVG Repo: https://www.svgrepo.com/svg/52325/papers -->
<svg version="1.1" id="Layer_1" xmlns="http://www.w3.org/2000/svg" xmlns:xlink="http://www.w3.org/1999/xlink" x="0px" y="0px"
	 viewBox="0 0 512 512" style="enable-background:new 0 0 512 512;" xml:space="preserve">
<g>
	<g>
		<path d="M392.169,0H32.681c-4.512,0-8.17,3.657-8.17,8.17v495.66c0,4.513,3.658,8.17,8.17,8.17h250.553
			c0.273,0,0.546-0.014,0.816-0.041c0.206-0.021,0.407-0.056,0.608-0.09c0.061-0.011,0.123-0.016,0.184-0.028
			c0.237-0.047,0.471-0.108,0.7-0.176c0.024-0.007,0.048-0.011,0.072-0.018c0.233-0.071,0.46-0.154,0.683-0.244
			c0.023-0.009,0.046-0.015,0.069-0.025c0.212-0.088,0.418-0.188,0.621-0.293c0.034-0.017,0.069-0.032,0.102-0.049
			c0.186-0.1,0.366-0.211,0.542-0.325c0.048-0.031,0.098-0.057,0.145-0.088c0.162-0.109,0.316-0.228,0.47-0.348
			c0.058-0.045,0.119-0.084,0.174-0.131c0.159-0.131,0.309-0.272,0.459-0.415c0.044-0.041,0.09-0.077,0.133-0.12l108.936-108.936
			c0.043-0.042,0.078-0.089,0.12-0.133c0.143-0.149,0.284-0.3,0.415-0.459c0.047-0.057,0.087-0.119,0.132-0.177
			c0.119-0.153,0.237-0.306,0.345-0.466c0.033-0.049,0.06-0.101,0.092-0.15c0.112-0.175,0.222-0.353,0.321-0.537
			c0.017-0.034,0.032-0.069,0.049-0.102c0.106-0.204,0.206-0.41,0.294-0.622c0.009-0.021,0.015-0.042,0.023-0.063
			c0.091-0.224,0.174-0.453,0.246-0.687c0.008-0.024,0.012-0.049,0.018-0.073c0.068-0.23,0.129-0.462,0.175-0.699
			c0.013-0.065,0.018-0.133,0.031-0.199c0.034-0.196,0.069-0.392,0.088-0.593c0.027-0.27,0.041-0.541,0.041-0.816V8.17
			C400.339,3.657,396.682,0,392.169,0z M291.404,484.106v-81.042h81.042L291.404,484.106z M384,386.723H283.234
			c-4.513,0-8.17,3.657-8.17,8.17V495.66H40.851V16.34H384V386.723z"/>
	</g>
</g>
<g>
	<g>
		<path d="M435.745,0h-10.894c-4.513,0-8.17,3.657-8.17,8.17s3.657,8.17,8.17,8.17h2.723V495.66h-98.122
			c-4.513,0-8.17,3.657-8.17,8.17s3.657,8.17,8.17,8.17h106.292c4.513,0,8.17-3.657,8.17-8.17V8.17
			C443.915,3.657,440.258,0,435.745,0z"/>
	</g>
</g>
<g>
	<g>
		<path d="M479.319,0h-10.894c-4.513,0-8.17,3.657-8.17,8.17s3.657,8.17,8.17,8.17h2.723V495.66h-2.723
			c-4.513,0-8.17,3.657-8.17,8.17s3.657,8.17,8.17,8.17h10.894c4.513,0,8.17-3.657,8.17-8.17V8.17
			C487.489,3.657,483.832,0,479.319,0z"/>
	</g>
</g>
</svg>
